<?xml version="1.0" encoding="utf-8"?>
<!-- Generator: Adobe Illustrator 16.0.0, SVG Export Plug-In . SVG Version: 6.00 Build 0)  -->
<!DOCTYPE svg PUBLIC "-//W3C//DTD SVG 1.1//EN" "http://www.w3.org/Graphics/SVG/1.1/DTD/svg11.dtd">
<svg version="1.1"
	 id="svg27450" inkscape:export-ydpi="300" inkscape:export-xdpi="300" inkscape:version="0.48+devel r12177 custom" inkscape:export-filename="./tux-large-bw.png" sodipodi:docname="tux-bw.svg" xmlns:dc="http://purl.org/dc/elements/1.1/" xmlns:cc="http://creativecommons.org/ns#" xmlns:rdf="http://www.w3.org/1999/02/22-rdf-syntax-ns#" xmlns:svg="http://www.w3.org/2000/svg" xmlns:sodipodi="http://sodipodi.sourceforge.net/DTD/sodipodi-0.dtd" xmlns:inkscape="http://www.inkscape.org/namespaces/inkscape"
	 xmlns="http://www.w3.org/2000/svg" xmlns:xlink="http://www.w3.org/1999/xlink" x="0px" y="0px" width="319.5px" height="409.5px"
	 viewBox="0 0 319.5 409.5" enable-background="new 0 0 319.5 409.5" xml:space="preserve">
<filter  height="1.5474488" width="1.9386586" inkscape:collect="always" color-interpolation-filters="sRGB" y="-0.27372435" x="-0.46932927" id="filter15211-9">
	<feGaussianBlur  inkscape:collect="always" stdDeviation="0.85991809" id="feGaussianBlur15213-7"></feGaussianBlur>
</filter>
<title  id="title20046">Tux</title>
<sodipodi:namedview  inkscape:showpageshadow="false" inkscape:guide-bbox="true" fit-margin-bottom="0" fit-margin-right="0" inkscape:window-maximized="1" inkscape:window-y="27" inkscape:window-x="1366" inkscape:window-height="1021" inkscape:window-width="1920" inkscape:current-layer="g14884-8" inkscape:pageshadow="2" inkscape:pageopacity="0.0" inkscape:document-units="px" showborder="true" showguides="true" fit-margin-left="0" fit-margin-top="0" showgrid="false" inkscape:cy="165" inkscape:cx="140" inkscape:zoom="1" borderopacity="0.41176471" bordercolor="#666666" pagecolor="#ffffff" id="base">
	</sodipodi:namedview>
<defs>
	
	<inkscape:path-effect  is_visible="true" effect="spiro" id="path-effect2283"></inkscape:path-effect>
	<inkscape:path-effect  is_visible="true" effect="spiro" id="path-effect4669-1"></inkscape:path-effect>
	<inkscape:path-effect  is_visible="true" effect="spiro" id="path-effect14972-2-2"></inkscape:path-effect>
	<inkscape:path-effect  is_visible="true" effect="spiro" id="path-effect29716-6-1"></inkscape:path-effect>
	<inkscape:path-effect  is_visible="true" effect="spiro" id="path-effect14300-7"></inkscape:path-effect>
	<inkscape:path-effect  is_visible="true" effect="spiro" id="path-effect29707-7-6"></inkscape:path-effect>
	<inkscape:path-effect  is_visible="true" effect="spiro" id="path-effect28851-0"></inkscape:path-effect>
	<inkscape:path-effect  is_visible="true" effect="spiro" id="path-effect28797-81"></inkscape:path-effect>
	<inkscape:path-effect  is_visible="true" effect="spiro" id="path-effect28797-8-1"></inkscape:path-effect>
	<inkscape:path-effect  is_visible="true" effect="spiro" id="path-effect29721-2"></inkscape:path-effect>
	<inkscape:path-effect  is_visible="true" effect="spiro" id="path-effect28714-5"></inkscape:path-effect>
	<inkscape:path-effect  is_visible="true" effect="spiro" id="path-effect29678-4-6"></inkscape:path-effect>
	<inkscape:path-effect  is_visible="true" effect="spiro" id="path-effect29678-1"></inkscape:path-effect>
	<inkscape:path-effect  is_visible="true" effect="spiro" id="path-effect29672-0"></inkscape:path-effect>
	<inkscape:path-effect  is_visible="true" effect="spiro" id="path-effect9396"></inkscape:path-effect>
	<inkscape:path-effect  is_visible="true" effect="spiro" id="path-effect9100"></inkscape:path-effect>
	<inkscape:path-effect  is_visible="true" effect="spiro" id="path-effect9105"></inkscape:path-effect>
	<inkscape:path-effect  is_visible="true" effect="spiro" id="path-effect9126"></inkscape:path-effect>
	<inkscape:path-effect  is_visible="true" effect="spiro" id="path-effect9121"></inkscape:path-effect>
	<inkscape:path-effect  is_visible="true" effect="spiro" id="path-effect9394"></inkscape:path-effect>
	<inkscape:path-effect  is_visible="true" effect="spiro" id="path-effect9114"></inkscape:path-effect>
	<inkscape:path-effect  is_visible="true" effect="spiro" id="path-effect9386"></inkscape:path-effect>
	<inkscape:path-effect  is_visible="true" effect="spiro" id="path-effect9135"></inkscape:path-effect>
	<inkscape:path-effect  is_visible="true" effect="spiro" id="path-effect14972-2-2-6"></inkscape:path-effect>
</defs>
<g>
	
		<polygon fill-rule="evenodd" clip-rule="evenodd" fill="#FFFFFF" stroke="#FFFFFF" stroke-width="10" stroke-miterlimit="10" points="
		6,321.901 13,403.401 44.312,396.901 49.08,403.401 258.939,403.401 265.5,388.319 274.5,396.901 300.084,378.901 288.851,355.766 
		312.5,322.248 295.5,309.396 173.106,234.12 43.999,289.547 	"/>
	<g>
		<path stroke="#FFFFFF" stroke-width="20" stroke-miterlimit="10" d="M152.777,9.504c3.303,0,6.604,0,9.906,0
			c0.163,0.08,0.319,0.206,0.491,0.232c1.679,0.254,3.371,0.427,5.037,0.746c5.155,0.985,9.987,2.878,14.48,5.56
			c4.223,2.52,7.901,5.699,11.127,9.445c2.753,3.199,5.073,6.664,7.029,10.375c3.435,6.513,5.124,13.545,5.777,20.824
			c0.331,3.698,0.357,7.424,0.514,11.137c0.166,3.955,0.285,7.912,0.493,11.864c0.191,3.62,0.403,7.241,0.748,10.847
			c0.162,1.69,0.067,3.468,1.25,4.97c0.749,0.951,1.319,2.063,1.846,3.162c1.806,3.771,3.522,7.586,5.34,11.352
			c1.744,3.612,3.427,7.267,5.407,10.748c1.555,2.732,3.363,5.359,5.345,7.801c3.431,4.228,7.05,8.305,10.653,12.391
			c2.813,3.19,5.2,6.671,7.209,10.398c3.204,5.945,5.829,12.164,7.829,18.603c1.805,5.812,3.487,11.685,4.765,17.629
			c0.97,4.509,1.311,9.163,1.744,13.771c0.183,1.933-0.03,3.919-0.222,5.865c-0.2,2.038-0.455,4.09-0.932,6.076
			c-0.522,2.182-1.323,4.298-2.019,6.488c2.725,0.982,5.217,2.284,6.886,4.852c2.097,3.226,2.979,6.793,3.057,10.55
			c0.048,2.372,0.439,4.626,1.784,6.532c1.107,1.567,2.474,3.002,3.927,4.266c2.627,2.285,5.364,4.451,8.131,6.569
			c2.192,1.678,4.651,2.997,6.355,5.287c2.47,3.32,2.819,8.134,0.816,11.76c-2.646,4.791-6.682,8.087-11.453,10.546
			c-4.847,2.498-9.725,4.936-14.618,7.339c-6.841,3.358-12.701,8.024-18.141,13.296c-2.202,2.135-4.456,4.241-6.869,6.128
			c-6.402,5.007-13.639,7.169-21.791,6.079c-5.137-0.686-9.875-2.353-14.107-5.352c-3.9-2.764-6.222-6.556-7.077-11.271
			c-7.186-1.657-14.376-3.277-21.741-3.946c-4.07-0.37-8.129-0.907-12.206-1.162c-3.759-0.235-7.537-0.168-11.305-0.281
			c-5.035-0.152-10.006,0.372-14.899,1.326c-0.263,1.04-0.471,2.082-0.79,3.089c-1.535,4.844-4.225,8.9-8.221,12.088
			c-4.314,3.442-9.213,5.279-14.715,5.482c-4.143,0.153-8.084-0.854-11.922-2.291c-4.82-1.805-9.541-3.924-14.448-5.441
			c-5.55-1.716-11.261-2.908-16.899-4.339c-5.486-1.393-10.98-2.748-16.445-4.221c-3.033-0.818-5.99-1.92-9.021-2.751
			c-2.637-0.724-5.237-1.473-7.438-3.175c-4.168-3.225-4.867-6.895-4.199-11.651c0.406-2.892,1.768-5.463,3.146-7.992
			c1.564-2.871,2.362-5.973,2.428-9.185c0.064-3.063-0.166-6.146-0.467-9.202c-0.432-4.383-1.27-8.741-0.684-13.17
			c0.441-3.345,1.682-6.371,4.207-8.666c2.587-2.351,5.803-3.303,9.241-3.422c2.614-0.09,5.234,0.017,7.851-0.037
			c0.896-0.019,1.807-0.188,2.679-0.411c2.622-0.672,3.827-2.866,5.156-4.92c1.498-2.314,2.968-4.649,4.536-6.914
			c0.621-0.896,0.928-1.703,0.503-2.763c-0.216-0.539-0.301-1.149-0.344-1.735c-0.313-4.243,0.318-8.302,2.352-12.1
			c1.659-3.099,3.298-6.209,4.882-9.346c1.801-3.562,3.651-7.107,5.258-10.759c1.658-3.767,3.049-7.651,4.536-11.434
			c-2.665,0-5.146,0.102-7.616-0.022c-4.312-0.218-8.324-1.648-12.24-3.354c-5.789-2.519-10.888-6.108-15.549-10.313
			c-3.115-2.809-5.887-5.957-8.244-9.437c-4.107-6.062-7.131-12.492-6.744-20.085c0.19-3.746,1.488-6.998,4.037-9.727
			c1.594-1.708,3.707-2.626,5.752-3.67c2.272-1.161,4.701-1.647,7.169-1.83c3.752-0.278,7.429,0.343,11.045,1.39
			c0.606,0.176,1.429,0.123,1.992-0.153c5.899-2.884,11.767-5.833,17.642-8.768c11.609-5.8,23.214-11.606,34.832-17.389
			c0.657-0.327,0.951-0.695,0.916-1.456c-0.12-2.6-0.153-5.203-0.261-7.803c-0.14-3.352-0.386-6.701-0.462-10.054
			c-0.08-3.631-0.076-7.266,0.002-10.897c0.053-2.426,0.139-4.873,0.501-7.266c0.487-3.224,1.063-6.46,1.946-9.594
			c1.643-5.834,4.639-10.977,8.873-15.325c1.602-1.646,3.395-3.132,5.23-4.521c4.613-3.488,9.871-5.521,15.54-6.539
			C150.186,9.993,151.481,9.745,152.777,9.504z"/>
		<path fill-rule="evenodd" clip-rule="evenodd" fill="none" stroke="#FFFFFF" stroke-width="20" stroke-miterlimit="10" d="
			M152.777,9.504c-1.296,0.241-2.592,0.489-3.89,0.722c-5.669,1.018-10.927,3.05-15.54,6.539c-1.836,1.388-3.629,2.875-5.23,4.521
			c-4.234,4.349-7.23,9.491-8.873,15.325c-0.883,3.134-1.459,6.37-1.946,9.594c-0.362,2.394-0.448,4.84-0.501,7.266
			c-0.078,3.631-0.082,7.267-0.002,10.897c0.076,3.353,0.322,6.702,0.462,10.054c0.107,2.6,0.141,5.204,0.261,7.803
			c0.035,0.761-0.259,1.129-0.916,1.456C104.983,89.463,93.379,95.27,81.77,101.07c-5.875,2.935-11.742,5.884-17.642,8.768
			c-0.563,0.275-1.386,0.329-1.992,0.153c-3.616-1.046-7.293-1.667-11.045-1.39c-2.468,0.183-4.896,0.669-7.169,1.83
			c-2.045,1.044-4.158,1.962-5.752,3.67c-2.549,2.729-3.847,5.981-4.037,9.727c-0.387,7.593,2.637,14.022,6.744,20.085
			c2.357,3.48,5.129,6.628,8.244,9.437c4.661,4.205,9.76,7.795,15.549,10.313c3.916,1.705,7.928,3.136,12.24,3.354
			c2.47,0.124,4.951,0.022,7.616,0.022c-1.487,3.782-2.878,7.667-4.536,11.434c-1.606,3.651-3.457,7.196-5.258,10.759
			c-1.584,3.137-3.223,6.247-4.882,9.346c-2.033,3.798-2.665,7.856-2.352,12.1c0.043,0.586,0.128,1.196,0.344,1.735
			c0.425,1.06,0.118,1.867-0.503,2.763c-1.568,2.265-3.038,4.6-4.536,6.914c-1.329,2.054-2.534,4.248-5.156,4.92
			c-0.872,0.224-1.782,0.393-2.679,0.411c-2.616,0.054-5.236-0.053-7.851,0.037c-3.438,0.119-6.654,1.071-9.241,3.422
			c-2.525,2.295-3.766,5.321-4.207,8.666c-0.586,4.429,0.252,8.787,0.684,13.17c0.301,3.056,0.531,6.139,0.467,9.202
			c-0.065,3.212-0.863,6.313-2.428,9.185c-1.379,2.529-2.74,5.101-3.146,7.992c-0.668,4.757,0.031,8.427,4.199,11.651
			c2.201,1.702,4.802,2.451,7.438,3.175c3.03,0.831,5.987,1.933,9.021,2.751c5.465,1.473,10.959,2.828,16.445,4.221
			c5.639,1.431,11.35,2.623,16.899,4.339c4.907,1.518,9.628,3.637,14.448,5.441c3.838,1.438,7.779,2.444,11.922,2.291
			c5.502-0.203,10.4-2.04,14.715-5.482c3.996-3.188,6.686-7.244,8.221-12.088c0.319-1.007,0.527-2.049,0.79-3.089
			c4.894-0.954,9.864-1.479,14.899-1.326c3.768,0.113,7.546,0.046,11.305,0.281c4.077,0.255,8.136,0.792,12.206,1.162
			c7.365,0.669,14.556,2.289,21.741,3.946c0.855,4.715,3.177,8.507,7.077,11.271c4.232,2.999,8.971,4.666,14.107,5.352
			c8.152,1.09,15.389-1.072,21.791-6.079c2.413-1.887,4.667-3.993,6.869-6.128c5.439-5.271,11.3-9.938,18.141-13.296
			c4.894-2.403,9.771-4.841,14.618-7.339c4.771-2.459,8.807-5.755,11.453-10.546c2.003-3.626,1.653-8.439-0.816-11.76
			c-1.704-2.29-4.163-3.609-6.355-5.287c-2.767-2.118-5.504-4.284-8.131-6.569c-1.453-1.264-2.819-2.698-3.927-4.266
			c-1.345-1.906-1.736-4.16-1.784-6.532c-0.077-3.757-0.96-7.324-3.057-10.55c-1.669-2.567-4.161-3.869-6.886-4.852
			c0.695-2.19,1.496-4.307,2.019-6.488c0.477-1.986,0.731-4.038,0.932-6.076c0.191-1.946,0.404-3.933,0.222-5.865
			c-0.434-4.607-0.774-9.262-1.744-13.771c-1.277-5.944-2.96-11.817-4.765-17.629c-2-6.439-4.625-12.658-7.829-18.603
			c-2.009-3.727-4.396-7.208-7.209-10.398c-3.604-4.085-7.223-8.163-10.653-12.391c-1.981-2.442-3.79-5.069-5.345-7.801
			c-1.98-3.481-3.663-7.136-5.407-10.748c-1.817-3.766-3.534-7.58-5.34-11.352c-0.526-1.099-1.097-2.211-1.846-3.162
			c-1.183-1.502-1.088-3.279-1.25-4.97c-0.345-3.606-0.557-7.228-0.748-10.847c-0.208-3.952-0.327-7.909-0.493-11.864
			c-0.156-3.713-0.183-7.439-0.514-11.137c-0.653-7.279-2.343-14.311-5.777-20.824c-1.956-3.71-4.276-7.176-7.029-10.375
			c-3.226-3.747-6.904-6.925-11.127-9.445c-4.493-2.681-9.325-4.575-14.48-5.56c-1.666-0.318-3.358-0.491-5.037-0.746
			c-0.172-0.026-0.328-0.152-0.491-0.232"/>
	</g>
	<g id="layer1_1_" transform="translate(160,-57.362183)" inkscape:label="Layer 1" inkscape:groupmode="layer">
		
			<path id="path29670-2_1_" sodipodi:nodetypes="aaaaaaaaaaaaaaaa" inkscape:connector-curvature="0" inkscape:original-d="m 40.523915,180.7341 c 3.81516,6.80607 7.98928,13.60047 10.12118,21.106 8.01683,28.22391 16.18873,58.9928 9.34454,87.52376 -3.91404,16.31621 -14.85206,31.12082 -27.46966,42.18132 -14.74526,12.92561 -33.56645,23.37901 -53.07364,25.37 -12.84802,1.31132 -26.69494,-2.40121 -37.610838,-9.30298 -17.986854,-11.3725 -33.999772,-29.12557 -40.423532,-49.4134 -4.026725,-12.71739 -0.27151,-26.95553 2.89379,-39.91421 2.29344,-9.38928 7.91221,-17.64415 11.47203,-26.63004 3.886182,-9.80972 6.241682,-20.23698 10.783122,-29.76107 4.11546,-8.63075 10.69895,-15.93423 14.80419,-24.56984 4.86887,-10.24194 2.85632,-24.6886 11.51361,-32.01352 10.004808,-8.46505 25.600778,-7.66957 38.688928,-6.99612 5.47743,0.28184 10.68539,2.60779 15.8054,4.57428 4.35849,1.67401 9.10391,3.02155 12.60195,6.11386 C 29.416275,157.34837 34.362165,169.74182 40.523915,180.7341 Z" inkscape:path-effect="#path-effect29672-0" fill="#020204" d="
			M57.883,172.636c3.257,7.09,6.892,14.003,10.121,21.106c6.217,13.669,10.938,28.103,12.898,42.991
			c1.962,14.887,1.105,30.258-3.553,44.533c-5.259,16.112-15.239,30.447-27.471,42.182c-14.467,13.879-33.04,24.58-53.073,25.369
			c-13.054,0.514-26.05-3.219-37.61-9.303c-9.716-5.113-18.584-11.927-25.66-20.32c-7.077-8.394-12.331-18.387-14.764-29.094
			c-2.996-13.183-1.641-27.178,2.894-39.914c3.243-9.107,8.05-17.587,11.472-26.629c3.74-9.881,5.829-20.431,10.783-29.762
			c4.492-8.458,11.227-15.686,14.805-24.57c2.137-5.306,3.063-11.005,4.443-16.557s3.312-11.144,7.07-15.457
			c4.528-5.197,11.343-8.014,18.19-8.804c6.848-0.791,13.778,0.276,20.499,1.808c5.35,1.22,10.635,2.735,15.805,4.574
			c4.414,1.57,8.785,3.398,12.602,6.114c5.199,3.7,9.16,8.911,12.315,14.458S55.221,166.836,57.883,172.636z"/>
		
			<path id="path28712-2_1_" sodipodi:nodetypes="zzzzzzzzzzzzzzzcssz" inkscape:connector-curvature="0" inkscape:original-d="m -58.927093,165.79951 c -0.23874,-1.95114 -0.33098,-16.56748 -0.7792,-23.31507 -0.44822,-6.74759 -1.76054,-14.36597 -0.71488,-22.41592 1.04566,-8.04995 0.0202,-15.49081 4.91386,-22.13118 4.89365,-6.64038 10.00464,-13.918393 15.585408,-16.222143 5.58077,-2.30375 13.76237,-5.136042 20.73397,-4.774941 6.9716,0.361101 20.71872,4.836184 27.3343,8.744136 6.61558,3.907948 8.43934,7.041748 12.35777,13.315908 3.91843,6.27416 4.49106,4.95343 6.32522,14.19138 1.83416,9.23795 1.3417,23.63449 2.67383,31.79633 1.33213,8.16184 1.48408,25.53013 1.58126,30.25019 0.0972,4.72006 3.07989,1.70599 -1.33303,6.39902 -4.41292,4.69303 -16.29873,5.9193 -23.29303,7.12535 -6.9943,1.20605 -9.85748,4.18037 -18.20845,3.81352 -8.35097,-0.36685 -15.11868,1.16314 -22.14788,0.0336 -7.0292,-1.12957 -13.384328,1.0334 -17.352208,-2.99749 -1.99863,-2.03037 -14.797502,9.88021 -6.87229,-8.12557 1.43517,-3.26065 0.118512,-5.40684 -0.315229,-8.18661 C -58.871413,170.52024 -58.688353,167.75065 -58.927093,165.79951 Z" inkscape:path-effect="#path-effect28714-5" fill="#020204" d="
			M-41.568,157.701c-0.644-7.751-0.489-15.543-0.778-23.315c-0.278-7.473-0.967-14.942-0.716-22.416
			c0.257-7.611,1.531-15.309,4.914-22.131c3.386-6.825,8.879-12.608,15.586-16.222c6.311-3.401,13.566-4.853,20.734-4.775
			c9.719,0.105,19.463,3.042,27.334,8.744c4.933,3.574,9.084,8.178,12.357,13.316c2.793,4.384,4.964,9.174,6.326,14.191
			c2.792,10.29,2.13,21.148,2.674,31.796c0.514,10.091,2.13,20.16,1.58,30.25c-0.119,2.191-0.355,4.434-1.332,6.399
			c-0.952,1.915-2.568,3.456-4.426,4.517c-1.855,1.062-3.947,1.666-6.061,1.992c-4.227,0.652-8.549,0.222-12.807,0.617
			c-6.181,0.573-12.076,2.865-18.209,3.813c-7.31,1.13-14.758,0.329-22.148,0.034c-2.959-0.118-5.929-0.155-8.867-0.523
			c-2.939-0.369-5.87-1.081-8.484-2.474c-1.611-0.858-3.094-1.975-4.295-3.349c-1.203-1.374-2.119-3.009-2.578-4.776
			c-0.687-2.653-0.324-5.446-0.314-8.187C-41.069,162.695-41.36,160.199-41.568,157.701z"/>
		
			<path id="path29676-3_1_" sodipodi:nodetypes="aaaaaaaaaaaa" inkscape:connector-curvature="0" inkscape:original-d="m -16.964615,357.03896 c 5.31141,1.45915 10.99141,0.86408 16.43925,1.67728 4.79165,0.71525 9.50413,1.88631 14.25969,2.81161 7.43501,1.44665 14.74518,4.52367 22.31583,4.28409 3.91094,-0.12377 9.20178,0.32283 11.36517,-2.93761 5.98186,-9.01526 -0.551,-22.13144 -4.72871,-32.11164 -2.60789,-6.23005 -6.08594,-13.31892 -12.2082,-16.17069 -8.16275,-3.80224 -18.64853,-2.01042 -26.97766,1.41204 -6.03181,2.47849 -10.56582,7.89452 -14.61149,13.00903 -2.84323,3.5944 -4.11374,8.20521 -6.53274,12.09779 -2.53371,4.07718 -9.56405,7.10679 -8.33155,11.74619 C -25.124865,356.05724 -20.157515,356.16181 -16.964615,357.03896 Z" inkscape:path-effect="#path-effect29678-1" fill="#020204" d="
			M0.395,348.94c5.501,0.319,10.991,0.854,16.439,1.677c4.792,0.725,9.55,1.671,14.26,2.812c7.377,1.787,14.729,4.067,22.316,4.283
			c1.996,0.058,4.01-0.031,5.96-0.466s3.843-1.226,5.405-2.472c2.328-1.857,3.809-4.658,4.356-7.586
			c0.547-2.93,0.208-5.977-0.649-8.83c-1.715-5.705-5.39-10.574-8.437-15.695c-1.745-2.932-3.3-5.979-5.188-8.82
			c-1.891-2.842-4.152-5.502-7.02-7.35c-3.968-2.559-8.888-3.393-13.586-2.924c-4.697,0.468-9.199,2.164-13.392,4.336
			c-5.876,3.042-11.407,7.219-14.612,13.008c-1.115,2.016-1.925,4.182-2.872,6.281c-0.946,2.099-2.056,4.165-3.66,5.816
			c-1.789,1.842-4.112,3.084-5.963,4.864c-0.925,0.89-1.735,1.925-2.21,3.118s-0.592,2.556-0.158,3.765
			c0.297,0.829,0.841,1.558,1.51,2.13c0.67,0.571,1.463,0.988,2.293,1.28C-3.15,348.752-1.363,348.838,0.395,348.94z"/>
		
			<path id="path29676-7-1_1_" sodipodi:nodetypes="aaaaaaaaaaaa" inkscape:connector-curvature="0" inkscape:original-d="m -33.313285,356.6854 c -4.47031,0.99017 -9.10753,1.0238 -13.610282,1.85407 -4.309938,0.79472 -8.519237,2.06598 -12.803666,2.98838 -7.211653,1.5526 -14.339038,4.52326 -21.71205,4.28409 -3.811742,-0.12365 -8.953592,0.24319 -11.057672,-2.93761 -5.96574,-9.01859 0.51057,-22.10189 4.60077,-32.11164 2.52985,-6.19116 5.831856,-13.31131 11.877892,-16.17069 7.920757,-3.746 18.168716,-1.97914 26.24775,1.41204 5.922736,2.48608 10.294528,7.92178 14.216168,13.00903 2.78113,3.60775 4.49162,7.94151 6.35599,12.09779 1.86656,4.16115 6.81989,8.71087 4.81434,12.80684 C -25.754375,356.71634 -30.270905,356.01152 -33.313285,356.6854 Z" inkscape:path-effect="#path-effect29678-4-6" fill="#020204" d="
			M-15.954,348.587c-4.583,0.106-9.12,0.926-13.61,1.854c-4.292,0.887-8.564,1.875-12.803,2.988
			c-7.154,1.877-14.318,4.127-21.713,4.283c-1.945,0.042-3.906-0.064-5.803-0.504c-1.896-0.438-3.732-1.22-5.255-2.434
			c-2.325-1.854-3.803-4.648-4.351-7.572c-0.547-2.922-0.213-5.963,0.636-8.813c1.696-5.7,5.337-10.579,8.315-15.726
			c1.693-2.925,3.188-5.967,5.018-8.807c1.832-2.841,4.037-5.508,6.861-7.363c3.848-2.531,8.646-3.389,13.229-2.936
			c4.584,0.451,8.976,2.139,13.018,4.348c5.706,3.116,10.917,7.406,14.216,13.008c2.315,3.932,3.651,8.426,6.356,12.098
			c1.456,1.979,3.289,3.688,4.501,5.823c0.605,1.068,1.05,2.245,1.153,3.47c0.104,1.224-0.151,2.498-0.841,3.515
			c-0.455,0.673-1.086,1.216-1.793,1.618c-0.705,0.402-1.484,0.665-2.28,0.831C-12.689,348.6-14.33,348.549-15.954,348.587z"/>
		
			<path id="path29719-5_1_" sodipodi:nodetypes="zssacaaaaaaaaaacsszzz" inkscape:connector-curvature="0" inkscape:original-d="m -47.295823,162.81433 c -4.91706,4.90258 -2.49185,14.09046 -3.57676,19.50419 -0.92511,4.61628 -3.47916,5.06947 -5.15761,9.37795 -2.60645,6.69062 -7.19429,10.29768 -9.02706,16.20217 -1.10811,3.56993 -1.04841,11.16474 -1.04841,11.16474 0,0 -7.73353,12.14529 -10.4229,18.78069 -4.06445,10.02809 -7.802842,20.54024 -8.454552,31.34105 -0.79301,13.14259 0.7101,26.88279 5.627472,39.09655 3.56234,8.84812 9.82005,16.62521 16.68566,23.2466 3.51109,3.3862 7.51286,6.71034 12.1895,8.09709 15.651498,4.64107 33.578538,4.95299 48.972958,-0.48031 8.32552,-2.9384 14.37103,-10.35083 20.78084,-16.42232 3.86495,-3.66095 7.97806,-7.32358 10.56653,-11.97551 4.94842,-8.89317 7.85743,-19.10137 8.80544,-29.23436 1.64987,-17.6351 0.5844,-36.2488 -5.62137,-52.83816 -2.15724,-5.7668 -5.89812,-6.8616 -10.58065,-15.14052 0,0 -3.4629,-15.40009 -6.69212,-22.54215 -2.29859,-5.08378 -4.87111,-10.24883 -7.47079,-15.29085 -2.11783,-4.10746 -0.95591,-8.14744 -6.61792,-12.1824 -5.66201,-4.03496 -19.19255,-4.63379 -27.47299,-4.57888 C -34.090985,158.9948 -42.378755,157.91176 -47.295823,162.81433 Z" inkscape:path-effect="#path-effect29721-2" fill="#FDFDFB" d="
			M-29.937,154.716c-1.046,1.312-1.728,2.887-2.14,4.514c-0.411,1.626-0.562,3.308-0.626,4.984
			c-0.128,3.353,0.076,6.771-0.812,10.006c-0.948,3.459-3.076,6.457-5.157,9.378c-3.604,5.059-7.249,10.25-9.026,16.202
			c-1.078,3.604-1.436,7.422-1.049,11.165c-4.035,5.926-7.529,12.221-10.423,18.781c-4.386,9.941-7.396,20.525-8.454,31.34
			c-1.297,13.243,0.396,26.862,5.627,39.098c3.781,8.846,9.418,16.943,16.686,23.246c3.695,3.205,7.8,5.939,12.189,8.098
			c15.213,7.477,34.014,7.49,48.973-0.48c7.818-4.166,14.418-10.259,20.781-16.423c3.832-3.712,7.644-7.513,10.566-11.976
			c5.627-8.592,7.588-19.035,8.806-29.234c2.13-17.833,2.198-36.67-5.622-52.838c-2.691-5.566-6.278-10.699-10.58-15.141
			c-1.146-7.781-3.406-15.396-6.692-22.542c-2.37-5.155-5.269-10.062-7.471-15.291c-0.904-2.146-1.69-4.345-2.693-6.447
			s-2.241-4.125-3.925-5.735c-1.723-1.649-3.871-2.818-6.136-3.566s-4.649-1.087-7.031-1.207c-4.765-0.24-9.538,0.384-14.306,0.194
			c-3.795-0.151-7.578-0.815-11.369-0.592c-1.896,0.112-3.791,0.451-5.55,1.165C-27.13,152.129-28.752,153.231-29.937,154.716z"/>
		
			<path id="path8633_1_" sodipodi:nodetypes="ssssssssssssssss" inkscape:connector-curvature="0" inkscape:original-d="m -102.74264,281.27901 c 6.364386,-1.35258 12.072376,4.85201 16.971996,9.09272 6.4658,5.59635 -8.60113,25.90362 13.32749,19.74347 5.89737,-1.65665 6.93829,11.26283 10.22756,16.38181 4.125274,6.41998 11.658014,13.62344 13.737464,20.94769 1.59371,5.6134 1.35177,10.85883 -1.6368,15.88397 -3.59352,6.04229 -11.864254,10.38414 -18.905974,11.16065 -5.76631,0.63588 -11.95232,-3.81848 -17.49206,-5.52503 -12.39299,-3.81774 -23.927776,-5.79556 -36.321806,-9.60993 -2.51652,-0.77452 -8.33529,-2.62663 -11.03831,-3.41149 -4.53856,-1.31786 -6.50589,-0.98841 -8.77486,-4.74752 -2.69924,-4.47203 0.68476,-9.6846 3.18353,-14.73003 4.09533,-8.26928 1.92387,-17.74884 0.46491,-25.40011 -0.9281,-4.86726 -0.66483,-7.89272 2.75961,-10.74464 5.02592,-4.18564 14.62091,-1.52521 20.47967,-4.06541 C -109.90144,293.71503 -109.055,282.62058 -102.74264,281.27901 Z" inkscape:path-effect="#path-effect9135" fill="#020204" stroke="#000000" stroke-width="8" stroke-linecap="round" stroke-linejoin="round" d="
			M-85.383,273.181c1.604-0.665,3.407-0.788,5.116-0.479c1.708,0.31,3.325,1.04,4.767,2.009c2.883,1.938,5.031,4.764,7.089,7.562
			c4.704,6.399,9.226,12.941,13.327,19.743c3.326,5.516,6.383,11.214,10.228,16.382c2.511,3.375,5.341,6.5,7.863,9.866
			c2.522,3.365,4.759,7.026,5.874,11.081c1.446,5.254,0.881,11.052-1.637,15.885c-1.783,3.424-4.521,6.35-7.84,8.324
			c-3.318,1.973-7.208,2.984-11.066,2.836c-6.145-0.234-11.769-3.273-17.492-5.525c-11.664-4.588-24.312-6.019-36.321-9.609
			c-3.69-1.104-7.319-2.41-11.038-3.412c-1.65-0.443-3.328-0.83-4.889-1.528s-3.021-1.744-3.887-3.219
			c-0.662-1.13-0.941-2.462-0.92-3.772c0.021-1.311,0.33-2.604,0.779-3.835c0.9-2.462,2.348-4.689,3.324-7.122
			c1.594-3.971,1.875-8.352,1.658-12.624c-0.218-4.272-0.912-8.508-1.193-12.776c-0.125-1.906-0.166-3.838,0.203-5.713
			c0.371-1.875,1.182-3.705,2.557-5.031c1.281-1.235,2.982-1.968,4.725-2.33c1.742-0.361,3.537-0.375,5.316-0.33
			c1.778,0.043,3.561,0.144,5.334,0.004c1.774-0.141,3.557-0.532,5.105-1.409c1.463-0.829,2.664-2.062,3.662-3.415
			s1.808-2.833,2.637-4.295c0.83-1.463,1.688-2.92,2.768-4.21C-88.256,274.947-86.937,273.824-85.383,273.181z"/>
		
			<path id="path14296-0-7_1_" inkscape:connector-curvature="0" inkscape:original-d="m 106.27098,331.91532 c 0.91426,1.58994 -1.57995,3.37303 -2.83335,4.71772 -2.75917,2.96012 -6.49123,4.88057 -9.95821,6.98944 -5.95062,3.61966 -12.6979,5.87745 -18.53454,9.67446 -3.9074,2.54194 -7.3738,5.69742 -10.9279,8.70453 -3.04095,2.57293 -5.5162,5.851 -8.88756,7.98303 -3.37281,2.13289 -7.08764,4.1361 -11.05917,4.63003 -4.81281,0.59854 -9.93379,-0.25465 -14.38817,-2.1548 -3.11401,-1.32832 -6.19956,-3.36682 -8.01268,-6.2023 -1.82419,-2.85284 -2.07379,-6.50921 -2.24659,-9.88081 -0.30925,-6.03408 1.37102,-12.00824 2.19207,-17.99521 0.68306,-4.9807 1.86468,-9.90017 2.27423,-14.91018 0.74407,-9.10225 -0.78457,-18.32802 0.32189,-27.39411 0.3569,-2.92436 -0.18213,-6.62994 2.02494,-8.60658 2.05111,-1.83693 5.46445,-1.11636 8.2303,-1.05793 3.36579,0.0712 6.67362,0.94697 9.95086,1.70911 2.06894,0.48117 4.0231,1.4053 6.11008,1.80302 3.46177,0.65964 7.00918,1.06159 10.53268,0.94777 3.80877,-0.12304 7.48297,-1.78858 11.29364,-1.75709 1.56153,0.0131 3.14307,0.28066 4.6151,0.79636 1.49191,0.52275 3.00649,1.201 4.14852,2.28519 0.87087,0.82679 1.43825,1.94832 1.89044,3.05553 0.67582,1.65477 0.89978,3.46271 1.17431,5.22669 0.24389,1.5671 -0.15405,3.25729 0.41691,4.73876 1.84165,4.77845 5.61145,8.68928 9.28244,12.28933 1.75365,1.92616 4.05555,3.51871 6.20555,4.80745 2.28301,1.36852 4.39474,2.43932 5.49686,4.79513 C 106.24675,328.58858 105.03653,330.85453 106.27096,331.91532 Z" inkscape:path-effect="#path-effect9386" fill="#020204" stroke="#000000" stroke-width="8" stroke-linecap="round" stroke-linejoin="round" d="
			M123.631,323.816c-0.68,1.713-1.641,3.314-2.834,4.719c-2.645,3.111-6.311,5.152-9.958,6.988
			c-6.229,3.137-12.677,5.893-18.534,9.675c-3.918,2.53-7.539,5.501-10.928,8.704c-2.896,2.739-5.646,5.666-8.889,7.983
			c-3.281,2.347-7.068,4.038-11.059,4.63c-4.859,0.721-9.876-0.213-14.389-2.154c-3.15-1.355-6.19-3.296-8.012-6.202
			c-1.818-2.9-2.24-6.458-2.247-9.881c-0.013-6.052,1.123-12.039,2.192-17.995c0.889-4.949,1.733-9.911,2.273-14.91
			c0.982-9.092,0.951-18.271,0.322-27.395c-0.105-1.528-0.227-3.071,0.006-4.586c0.232-1.514,0.858-3.021,2.02-4.021
			c1.083-0.933,2.537-1.343,3.965-1.419s2.851,0.153,4.266,0.361c3.331,0.488,6.691,0.861,9.95,1.709
			c2.056,0.533,4.059,1.254,6.11,1.803c3.426,0.918,7.01,1.355,10.533,0.947c3.791-0.439,7.477-1.849,11.293-1.756
			c1.566,0.037,3.119,0.33,4.615,0.796c1.522,0.474,3.025,1.153,4.148,2.285c0.85,0.856,1.443,1.936,1.891,3.056
			c0.664,1.664,1.021,3.441,1.174,5.227c0.136,1.581,0.115,3.181,0.417,4.738c0.499,2.574,1.862,4.916,3.556,6.918
			c1.691,2.002,3.712,3.695,5.727,5.371c2.014,1.674,4.036,3.344,6.206,4.809c1.018,0.687,2.068,1.328,3.035,2.086
			c0.968,0.756,1.856,1.64,2.462,2.709C123.758,320.453,124.009,322.205,123.631,323.816L123.631,323.816z"/>
		
			<path id="path28795-9-5_1_" sodipodi:nodetypes="zzzzzzz" inkscape:connector-curvature="0" inkscape:original-d="m -45.767713,121.36218 c -3.79199,4.78949 -8.5176,11.69104 -8.19273,17.25 0.32487,5.55896 3.86025,13.93486 8.37542,16 4.515168,2.06514 5.754358,0.0125 8.329018,-2.5 2.57466,-2.51247 3.85871,-7.34762 4.00585,-12.25 0.14713,-4.90238 -3.03534,-11.91949 -5.43855,-15.25 C -41.091915,121.28167 -41.975725,116.57269 -45.767713,121.36218 Z" inkscape:path-effect="#path-effect28797-8-1" fill="#FFFFFF" d="
			M-28.408,113.264c-1.781,0.097-3.484,0.919-4.788,2.137s-2.222,2.812-2.786,4.503c-1.129,3.384-0.875,7.052-0.619,10.61
			c0.232,3.222,0.471,6.505,1.678,9.501c0.603,1.498,1.449,2.91,2.58,4.064c1.13,1.154,2.552,2.042,4.118,2.435
			c1.469,0.368,3.038,0.292,4.483-0.162c1.443-0.454,2.764-1.279,3.846-2.338c1.579-1.545,2.643-3.566,3.254-5.689
			c0.609-2.123,0.783-4.352,0.752-6.561c-0.04-2.764-0.4-5.539-1.266-8.165c-0.865-2.625-2.246-5.103-4.173-7.085
			c-0.934-0.96-1.998-1.805-3.198-2.397C-25.729,113.524-27.071,113.191-28.408,113.264z"/>
		
			<path id="path28795-3_1_" sodipodi:nodetypes="aaaaaaaa" inkscape:connector-curvature="0" inkscape:original-d="m -14.250155,121.36218 c -2.54738,2.12715 -5.20812,4.59907 -6.25,7.75 -1.30914,3.95917 -1.63336,8.91703 0.5,12.5 3.91901,6.58194 12.38353,13.85135 19.75,11.75 4.87452,-1.3905 6.10748,-8.51023 7,-13.5 0.59149,-3.30679 0.59578,-7.19325 -1.25,-10 -3.61233,-5.49303 -10.4265,-9.89357 -17,-10 C -12.544185,119.84528 -13.448675,120.69292 -14.250155,121.36218 Z" inkscape:path-effect="#path-effect28797-81" fill="#FFFFFF" d="
			M3.109,113.264c-2.781,1.91-5.111,4.575-6.25,7.75c-1.436,4.001-0.887,8.48,0.5,12.5c1.42,4.117,3.793,8.041,7.379,10.512
			c1.793,1.236,3.868,2.083,6.031,2.339c2.162,0.255,4.408-0.095,6.34-1.101c2.354-1.226,4.147-3.373,5.262-5.781
			c1.115-2.408,1.589-5.07,1.738-7.719c0.189-3.375-0.141-6.807-1.25-10c-1.205-3.469-3.391-6.67-6.473-8.667
			c-1.541-0.998-3.292-1.684-5.111-1.935c-1.818-0.252-3.705-0.063-5.416,0.602C4.884,112.142,3.972,112.671,3.109,113.264z"/>
		
			<path id="path28849-2_1_" sodipodi:nodetypes="zzzzzzzz" inkscape:connector-curvature="0" inkscape:original-d="m -37.399535,144.86218 c 2.36858,-2.71553 5.49188,-12.81068 11.47234,-10 5.98046,2.81068 5.18243,3.47651 6.45272,5.5 1.27028,2.02349 0.98505,2.86855 1.97912,3.75 0.99407,0.88145 7.78165,4.54964 6.08048,6.5 -1.70117,1.95036 -7.94588,4.73939 -14.76286,5.63406 -6.81697,0.89467 -15.96709,-1.59131 -15.92049,-4.13406 C -42.051625,149.56943 -39.768105,147.57771 -37.399535,144.86218 Z" inkscape:path-effect="#path-effect28851-0" fill="#020204" d="
			M-20.04,136.764c1.767-1.987,2.976-4.411,4.674-6.457c0.849-1.023,1.829-1.955,2.981-2.617c1.154-0.661,2.492-1.041,3.816-0.926
			c1.475,0.128,2.855,0.862,3.935,1.875c1.079,1.012,1.88,2.29,2.519,3.625c0.611,1.278,1.098,2.64,1.979,3.75
			c0.94,1.184,2.259,1.992,3.45,2.923c0.597,0.465,1.168,0.969,1.639,1.561s0.84,1.276,0.991,2.017
			c0.153,0.752,0.077,1.545-0.185,2.267c-0.263,0.722-0.707,1.372-1.26,1.904c-1.105,1.065-2.613,1.64-4.135,1.854
			c-3.04,0.43-6.114-0.476-9.184-0.392c-3.107,0.086-6.142,1.184-9.248,1.07c-1.553-0.057-3.127-0.436-4.404-1.323
			c-0.638-0.443-1.193-1.01-1.596-1.675c-0.401-0.665-0.646-1.429-0.672-2.206c-0.025-0.741,0.147-1.481,0.443-2.161
			c0.297-0.68,0.713-1.302,1.182-1.875C-22.174,138.83-21.025,137.871-20.04,136.764z"/>
		
			<path id="path29705-5-0_1_" sodipodi:nodetypes="aaaaassssaaaaaa" inkscape:connector-curvature="0" inkscape:original-d="m 45.101345,224.44951 c 5.14766,5.63479 9.90415,12.47181 11.14096,20.00305 1.95189,11.88535 -5.05988,23.58228 -6.56241,35.53274 -0.58686,4.66766 -2.89986,9.7988 -0.95215,14.08107 1.12328,2.46967 3.82952,4.35176 6.48184,4.92292 5.17406,1.1142 12.17329,2.41291 15.47656,-3.54776 6.1876,-11.16533 10.78761,-26.78642 9.63039,-38.64225 -0.92237,-9.44981 -3.93849,-18.61978 -7.87991,-27.40773 -2.86791,-6.39442 -6.25814,-12.5833 -9.79135,-18.52016 -3.50366,-5.88721 -8.34872,-10.94245 -13.34018,-15.63502 -6.46315,-6.07614 -12.62727,-17.98386 -21.27161,-15.99204 -5.58412,1.28669 -7.58494,9.57719 -7.83486,15.30218 -0.17557,4.02188 2.50878,7.71677 4.54639,11.18873 2.30327,3.92465 5.19673,7.56255 8.53596,10.65407 C 36.780445,219.62919 41.884805,220.92858 45.101345,224.44951 Z" inkscape:path-effect="#path-effect29707-7-6" fill="#020204" d="
			M62.461,216.351c6.084,4.895,9.945,12.285,11.141,20.002c0.933,6.02,0.326,12.195-1.031,18.133
			c-1.356,5.938-3.451,11.676-5.531,17.4c-0.829,2.283-1.662,4.587-1.992,6.993c-0.328,2.406-0.12,4.954,1.04,7.088
			c1.331,2.446,3.813,4.13,6.481,4.923c2.636,0.783,5.481,0.766,8.148,0.102c2.668-0.664,5.158-1.963,7.328-3.649
			c5.516-4.282,8.844-10.948,10.133-17.812c1.288-6.863,0.696-13.951-0.502-20.83c-1.633-9.382-4.382-18.551-7.88-27.408
			c-2.573-6.515-5.584-12.92-9.791-18.52c-4.117-5.48-9.308-10.093-13.341-15.635c-2.803-3.851-5.047-8.149-8.406-11.526
			c-1.68-1.688-3.641-3.132-5.859-3.995c-2.221-0.862-4.713-1.116-7.006-0.471c-3.021,0.851-5.489,3.231-6.803,6.083
			c-1.312,2.851-1.543,6.123-1.031,9.22c0.658,3.995,2.486,7.702,4.546,11.188c2.327,3.937,5.022,7.727,8.536,10.654
			C54.308,211.345,58.742,213.359,62.461,216.351z"/>
		<g>
			<defs>
				<path id="SVGID_1_" d="M123.365,322.777c-0.672,1.719-1.627,3.326-2.816,4.738c-2.623,3.115-6.268,5.17-9.896,7.02
					c-6.188,3.154-12.602,5.922-18.42,9.717c-3.897,2.543-7.496,5.526-10.859,8.742c-2.877,2.75-5.605,5.688-8.833,8.018
					c-3.255,2.352-7.019,4.055-10.99,4.65c-4.831,0.725-9.821-0.213-14.3-2.164c-3.137-1.367-6.154-3.323-7.963-6.229
					c-1.813-2.917-2.228-6.488-2.232-9.924c-0.008-6.077,1.119-12.09,2.179-18.073c0.881-4.972,1.72-9.955,2.261-14.975
					c0.982-9.132,0.976-18.354,0.319-27.514c-0.11-1.534-0.237-3.084-0.008-4.604s0.854-3.036,2.021-4.04
					c1.077-0.926,2.521-1.336,3.939-1.414s2.834,0.146,4.24,0.352c3.312,0.484,6.651,0.865,9.889,1.717
					c2.043,0.537,4.033,1.26,6.072,1.811c3.402,0.921,6.967,1.361,10.467,0.952c3.77-0.44,7.431-1.856,11.225-1.765
					c1.557,0.038,3.102,0.332,4.586,0.8c1.516,0.478,3.01,1.162,4.123,2.296c0.846,0.861,1.436,1.945,1.879,3.068
					c0.66,1.674,1.015,3.457,1.167,5.249c0.135,1.588,0.113,3.194,0.414,4.76c0.495,2.574,1.848,4.923,3.528,6.935
					c1.682,2.012,3.689,3.721,5.697,5.408c1.998,1.681,4.01,3.354,6.166,4.828c1.013,0.691,2.057,1.34,3.018,2.101
					s1.845,1.647,2.445,2.716C123.497,319.4,123.746,321.158,123.365,322.777L123.365,322.777"/>
			</defs>
			<use xlink:href="#SVGID_1_"  overflow="visible" fill="#FDC300"/>
			<clipPath id="SVGID_2_">
				<use xlink:href="#SVGID_1_"  overflow="visible"/>
			</clipPath>
			
				<path id="path14296-0_1_" sodipodi:nodetypes="aaaaaaaaaaaaaaaaaaaaaaaacscaa" inkscape:connector-curvature="0" inkscape:original-d="m 516.00562,331.87559 c 0.90859,1.59687 -1.57016,3.38773 -2.81579,4.73826 -2.74207,2.97299 -6.45099,4.90178 -9.89648,7.01985 -5.91373,3.63539 -12.61918,5.90302 -18.41964,9.71654 -3.88318,2.553 -7.32809,5.72221 -10.86016,8.74238 -3.0221,2.58411 -5.48201,5.87643 -8.83247,8.01771 -3.3519,2.1422 -7.0437,4.15414 -10.99061,4.6502 -4.78298,0.60114 -9.87221,-0.25577 -14.29898,-2.16416 -3.0947,-1.33413 -6.16113,-3.38144 -7.96301,-6.22931 -1.81288,-2.86525 -2.06093,-6.5375 -2.23266,-9.92375 -0.30734,-6.06031 1.36252,-12.0605 2.17848,-18.07349 0.67882,-5.00236 1.85312,-9.94325 2.26013,-14.97502 0.73946,-9.14185 -0.7797,-18.40771 0.3199,-27.51327 0.35468,-2.93704 -0.181,-6.65876 2.01238,-8.64398 2.0384,-1.84494 5.43058,-1.1212 8.17929,-1.06253 3.34492,0.0714 6.63224,0.95108 9.88917,1.71656 2.05612,0.48325 3.99816,1.41138 6.0722,1.81081 3.44031,0.66255 6.96573,1.06623 10.46739,0.95192 3.78516,-0.12356 7.43659,-1.79636 11.22363,-1.76474 1.55185,0.013 3.12359,0.28186 4.58649,0.79985 1.48266,0.52499 2.98786,1.20618 4.12281,2.29512 0.86547,0.83038 1.42933,1.95676 1.87872,3.06879 0.67163,1.66196 0.8942,3.4778 1.16703,5.24945 0.24238,1.57389 -0.1531,3.27141 0.41433,4.75933 1.83023,4.79924 5.57666,8.72712 9.22489,12.34277 1.74278,1.93455 4.03041,3.53404 6.16708,4.82839 2.26886,1.37444 4.3675,2.44991 5.46279,4.81597 C 515.98154,328.53441 514.77882,330.81021 516.0056,331.87559 Z" inkscape:path-effect="#path-effect14300-7" clip-path="url(#SVGID_2_)" fill="#FDC300" d="
				M123.365,322.777c-0.672,1.719-1.627,3.326-2.816,4.738c-2.623,3.114-6.268,5.17-9.896,7.02
				c-6.188,3.154-12.602,5.922-18.42,9.717c-3.897,2.542-7.496,5.526-10.859,8.742c-2.877,2.75-5.605,5.688-8.833,8.018
				c-3.255,2.352-7.019,4.055-10.99,4.65c-4.831,0.725-9.821-0.213-14.3-2.164c-3.137-1.367-6.154-3.323-7.963-6.229
				c-1.813-2.917-2.228-6.488-2.232-9.924c-0.008-6.077,1.119-12.09,2.179-18.073c0.881-4.973,1.72-9.955,2.261-14.975
				c0.982-9.132,0.976-18.354,0.319-27.514c-0.11-1.534-0.237-3.084-0.008-4.604s0.854-3.036,2.021-4.04
				c1.077-0.926,2.521-1.336,3.939-1.414s2.834,0.146,4.24,0.352c3.312,0.484,6.651,0.865,9.889,1.717
				c2.043,0.537,4.033,1.26,6.072,1.811c3.402,0.921,6.967,1.361,10.467,0.952c3.77-0.44,7.431-1.856,11.225-1.765
				c1.557,0.038,3.102,0.332,4.586,0.8c1.516,0.478,3.01,1.162,4.123,2.296c0.846,0.86,1.436,1.945,1.879,3.068
				c0.66,1.674,1.015,3.457,1.167,5.249c0.135,1.588,0.113,3.194,0.414,4.759c0.495,2.575,1.848,4.924,3.528,6.936
				c1.682,2.012,3.689,3.721,5.697,5.408c1.998,1.681,4.01,3.354,6.166,4.828c1.013,0.691,2.057,1.34,3.018,2.101
				s1.845,1.647,2.445,2.716C123.497,319.4,123.746,321.158,123.365,322.777L123.365,322.777z"/>
		</g>
		<g>
			<defs>
				<path id="SVGID_3_" d="M62.461,216.351c6.125,4.923,9.953,12.316,11.141,20.002c1.858,12.032-2.389,24.075-6.562,35.533
					c-0.832,2.285-1.67,4.59-2,6.995c-0.331,2.405-0.121,4.948,1.048,7.086c1.327,2.425,3.8,4.125,6.481,4.923
					c2.637,0.785,5.492,0.762,8.16,0.092c2.668-0.668,5.152-1.967,7.316-3.64c5.58-4.31,8.917-10.985,10.191-17.844
					c1.275-6.858,0.651-13.929-0.561-20.798c-1.652-9.369-4.387-18.54-7.88-27.408c-2.563-6.508-5.567-12.911-9.791-18.52
					c-4.12-5.47-9.328-10.09-13.341-15.635c-2.781-3.844-4.988-8.131-8.34-11.508c-1.676-1.688-3.641-3.135-5.873-4.001
					c-2.233-0.866-4.748-1.125-7.059-0.482c-1.531,0.425-2.943,1.237-4.111,2.301c-1.166,1.064-2.089,2.376-2.74,3.803
					c-1.304,2.854-1.504,6.113-0.982,9.198c0.672,3.983,2.488,7.693,4.546,11.188c2.315,3.932,5.007,7.719,8.536,10.654
					C54.304,211.337,58.746,213.365,62.461,216.351"/>
			</defs>
			<clipPath id="SVGID_4_">
				<use xlink:href="#SVGID_3_"  overflow="visible"/>
			</clipPath>
			
				<path id="path29705-9_1_" sodipodi:nodetypes="cssssssccsssscc" inkscape:connector-curvature="0" clip-path="url(#SVGID_4_)" fill="#FDFDFB" d="
				M48.141,206.92c0.494,0.468,0.998,0.942,1.527,1.375c3.732,3.055,5.72,6.485,9.506,9.477c6.195,4.895,12.48,13.344,13.697,21.061
				c0.949,6.02-0.307,9.289-1.837,16.389c-1.53,7.098-5.874,17.147-8.22,23.992c-0.936,2.729,1.895,1.603,1.523,4.479
				c-0.184,1.414-0.201,2.843-0.035,4.26c0.023-0.271,0.039-0.553,0.07-0.822c0.451-3.922,1.652-7.694,2.961-11.395
				c2.52-7.123,5.41-14.102,7.404-21.408c1.992-7.307,1.771-12.564,0.73-18.844c-1.307-7.896-5.901-15.188-12.407-20
				C58.461,212.079,53.037,209.898,48.141,206.92L48.141,206.92z"/>
		</g>
		
			<g id="path28767-9-3_1_" sodipodi:nodetypes="aaaa" inkscape:connector-curvature="0" opacity="0.25" filter="url(#filter15211-9)" enable-background="new    ">
			<path fill="#7C7C7C" d="M-44.066,181.905c-0.119-1.435-2.169-1.65-3.084-0.935c-0.771,0.604-1.496,2.671-0.83,3.478
				C-46.897,185.758-43.905,183.873-44.066,181.905z"/>
		</g>
		<g id="g14884-8_1_" transform="translate(-1.55e-4,-0.9999998)">
			
				<path id="path29714-5-4_1_" sodipodi:nodetypes="aaaasssaccaa" inkscape:connector-curvature="0" inkscape:original-d="m 76.1875,285.32775 c -2.36571,-3.81321 -7.59294,-4.9003 -11.805,-6.41698 -2.08672,-0.75138 -4.32322,-1.04333 -6.52782,-1.27734 -2.27612,-0.2416 -4.71593,-0.91505 -6.8653,-0.1253 -3.64566,1.33955 -7.24986,3.80684 -8.75671,7.70871 -1.13743,2.94527 -1.80122,7.05909 -1.65394,10.40316 0.13075,2.96891 0.9633,5.07273 2.60877,7.33912 1.08803,1.49859 3.40096,2.67896 5.43398,3.22092 3.49923,0.93284 7.37483,0.82779 10.86038,-0.1553 5.98587,-2.2615 11.09272,-5.76885 14.33034,-10.77903 1.07459,-1.67639 2.15539,-3.45031 2.5532,-5.4034 C 76.66593,288.36681 76.98059,286.6061 76.1875,285.32775 Z" inkscape:path-effect="#path-effect29716-6-1" fill="#020204" d="
				M93.547,277.229c-0.405-1.104-1.119-2.082-1.99-2.87c-0.873-0.788-1.9-1.393-2.983-1.852c-2.165-0.918-4.521-1.262-6.831-1.695
				c-2.18-0.41-4.342-0.906-6.528-1.277c-2.271-0.386-4.618-0.633-6.865-0.125c-1.966,0.443-3.784,1.458-5.272,2.818
				c-1.486,1.359-2.648,3.057-3.484,4.89c-1.473,3.229-1.935,6.865-1.654,10.403c0.209,2.633,0.876,5.346,2.609,7.339
				c1.4,1.61,3.387,2.616,5.434,3.222c3.525,1.043,7.367,0.988,10.861-0.156c5.766-1.931,10.875-5.773,14.33-10.779
				c1.139-1.648,2.111-3.447,2.553-5.402C94.061,280.254,94.072,278.662,93.547,277.229z"/>
			<g>
				<defs>
					<path id="SVGID_5_" d="M93.547,277.229c-0.405-1.104-1.119-2.082-1.99-2.87c-0.873-0.788-1.9-1.393-2.983-1.852
						c-2.165-0.918-4.521-1.262-6.831-1.695c-2.18-0.41-4.342-0.906-6.528-1.277c-2.271-0.386-4.618-0.633-6.865-0.125
						c-1.966,0.443-3.784,1.458-5.272,2.818c-1.486,1.359-2.648,3.057-3.484,4.89c-1.473,3.229-1.935,6.865-1.654,10.403
						c0.209,2.633,0.876,5.346,2.609,7.339c1.4,1.61,3.387,2.616,5.434,3.222c3.525,1.043,7.367,0.988,10.861-0.156
						c5.766-1.931,10.875-5.773,14.33-10.779c1.139-1.648,2.111-3.447,2.553-5.402C94.061,280.254,94.072,278.662,93.547,277.229"/>
				</defs>
				<clipPath id="SVGID_6_">
					<use xlink:href="#SVGID_5_"  overflow="visible"/>
				</clipPath>
				
					<path id="path29714-3-9-3-8_1_" sodipodi:nodetypes="cccsssscsc" inkscape:connector-curvature="0" inkscape:original-d="m 360.59375,276.64343 c -3.5855,0.62755 -6.71554,2.98212 -8.4375,5.84375 -1.79276,2.26012 -3.14375,2.34147 -0.39724,2.11776 0.74786,0.0512 1.41372,-0.4395 2.01504,-1.06859 2.37223,-2.48325 3.04137,-2.21829 4.38389,-2.75653 1.34251,-0.53824 4.28845,-1.34136 6.3217,-1.42382 4.59613,-0.18639 2.27416,-0.44623 4.53315,-0.30392 2.259,0.1427 8.83572,0.23606 8.83572,0.23606 l -6.17678,-1.98302 C 365.47671,275.31624 364.69002,276.42174 360.59375,276.64343 Z" inkscape:path-effect="#path-effect2283" clip-path="url(#SVGID_6_)" fill="#FDFDFB" d="
					M67.953,268.545l-8.438,5.844l-0.397,2.117c0.692-0.313,1.366-0.67,2.015-1.068c1.474-0.902,2.822-2.017,4.385-2.756
					c1.962-0.93,4.159-1.221,6.321-1.424c1.508-0.143,3.02-0.248,4.533-0.305c2.946-0.109,5.899-0.029,8.835,0.236l-6.176-1.982
					c-1.795-0.576-3.617-1.119-5.496-1.284C71.657,267.757,69.744,267.955,67.953,268.545z"/>
			</g>
		</g>
		<g id="g15037-4_1_" transform="translate(-1.55e-4,-0.9999998)">
			
				<path id="path14967-1-0-0_1_" sodipodi:nodetypes="czzzzzzzzzzzzzzzszsszc" inkscape:connector-curvature="0" inkscape:original-d="m -72.760093,205.57722 c 0,0 -5.54376,6.53277 -8.33445,10.43446 -2.7907,3.9017 -1.670656,-0.0687 -4.521426,4.03388 -2.85076,4.10259 1.827569,-4.00339 -0.256731,0.49542 -2.08429,4.49881 -2.32047,9.0356 -4.26498,13.84932 -1.94451,4.81371 -3.70129,10.64183 -5.97071,15.33612 -2.26943,4.69429 -5.37093,9.68473 -6.93891,13.53553 -1.56799,3.8508 -3.81119,5.72384 -4.10782,10.22071 -0.29663,4.49686 -0.57747,8.31749 3.77151,16.77227 4.34898,8.45478 19.331159,19.21965 24.24176,22.80279 4.910594,3.58314 6.582981,4.3748 10.235787,5.1626 3.652805,0.7878 9.712741,1.81539 11.726238,-0.76913 2.013492,-2.58451 1.592528,-3.61179 -0.524762,-6.45852 -2.117296,-2.84672 -3.381933,-3.2105 -6.866935,-5.79686 -3.484995,-2.58636 -12.421148,-14.87266 -16.466308,-19.23996 -4.04516,-4.36729 -6.223427,-3.76519 -4.646307,-6.63767 1.57712,-2.87249 -2.914486,-4.36212 -3.364936,-8.04609 -0.76361,-6.24511 0.766823,-18.00335 1.282803,-21.42632 0.51598,-3.42296 1.772996,-3.48028 3.694927,-8.74676 2.835215,-7.76906 5.323194,-15.31193 6.533537,-17.78511 2.521611,-5.15259 0.852279,-0.6444 1.710199,-5.24203 C -74.969687,213.47424 -72.760093,205.57722 -72.760093,205.57722 Z" inkscape:path-effect="#path-effect14972-2-2-6" fill="#FDFDFB" d="
				M-55.4,197.478c-1.771,4.144-4.686,7.792-8.335,10.435c-0.825,0.598-1.688,1.145-2.484,1.78
				c-0.798,0.635-1.534,1.368-2.037,2.254c-0.092,0.162-0.175,0.328-0.257,0.495c-2.122,4.349-2.953,9.191-4.265,13.85
				c-1.488,5.287-3.61,10.376-5.971,15.336c-2.179,4.578-4.565,9.056-6.938,13.536c-1.728,3.258-3.473,6.588-4.108,10.221
				c-1.008,5.758,0.899,11.68,3.771,16.771c5.517,9.781,14.486,17.24,24.241,22.803c3.321,1.895,6.75,3.594,10.236,5.163
				c1.962,0.884,3.998,1.739,6.148,1.825c1.075,0.043,2.167-0.114,3.154-0.541c0.988-0.427,1.867-1.133,2.424-2.054
				c0.59-0.976,0.797-2.157,0.672-3.29s-0.57-2.216-1.197-3.168c-0.828-1.26-1.96-2.293-3.162-3.203
				c-1.202-0.909-2.484-1.709-3.705-2.594c-6.862-4.982-11.438-12.41-16.466-19.24c-1.602-2.176-3.269-4.312-4.646-6.638
				c-1.487-2.509-2.626-5.226-3.365-8.046c-1.842-7.025-1.15-14.584,1.282-21.427c1.061-2.982,2.439-5.841,3.695-8.747
				c2.506-5.799,4.523-11.795,6.533-17.785c0.585-1.742,1.169-3.485,1.71-5.242C-57.205,205.872-56.181,201.698-55.4,197.478z"/>
			
				<path id="path14967-1-0_1_" sodipodi:nodetypes="czzzzzzzzzzzzzzzszzzzzc" inkscape:connector-curvature="0" inkscape:original-d="m -61.50184,184.42468 c 0,0 -5.54376,6.53277 -8.33445,10.43446 -2.7907,3.9017 -5.73652,6.64881 -8.58729,10.75139 -2.85076,4.10259 -7.36482,9.43164 -9.44912,13.93045 -2.08429,4.49881 -2.32047,9.0356 -4.26498,13.84932 -1.94451,4.81371 -3.70129,10.64183 -5.97071,15.33612 -2.26943,4.69429 -5.37093,9.68473 -6.93891,13.53553 -1.56799,3.8508 -3.81119,5.72384 -4.10782,10.22071 -0.29663,4.49686 -0.57747,8.31749 3.77151,16.77227 4.34898,8.45478 17.23626,22.00721 24.24176,27.92472 7.00549,5.9175 9.39133,7.22492 14.60245,8.52595 5.21112,1.30104 13.85627,2.9981 16.72874,-1.2702 2.87246,-4.26829 2.27191,-5.96483 -0.74863,-10.66616 -3.02055,-4.70132 -4.82469,-5.30209 -9.79642,-9.57343 -4.97172,-4.27133 -18.63696,-14.87266 -22.68212,-19.23996 -4.04516,-4.36729 -7.10731,-3.41164 -5.53019,-6.28412 1.57712,-2.87249 -2.20738,-4.00856 -2.65783,-7.69253 -0.76361,-6.24511 0.9436,-18.71046 1.45958,-22.13343 0.51598,-3.42296 1.22371,-2.92446 3.51815,-8.03965 2.29444,-5.11519 4.12424,-8.62435 7.04933,-13.46723 2.92509,-4.84289 8.62493,-10.12787 11.15147,-15.27803 2.52654,-5.15017 3.50393,-10.72068 4.36185,-15.31831 C -62.82755,192.14492 -61.50184,184.42468 -61.50184,184.42468 Z" inkscape:path-effect="#path-effect14972-2-2" fill="#020204" d="
				M-44.142,176.326c-2.783,3.474-5.562,6.952-8.334,10.435c-2.857,3.588-5.709,7.181-8.588,10.751
				c-3.533,4.38-7.148,8.794-9.449,13.93c-1.977,4.413-2.91,9.208-4.265,13.85c-1.538,5.271-3.626,10.37-5.971,15.336
				c-2.165,4.585-4.55,9.063-6.938,13.536c-1.738,3.254-3.506,6.58-4.108,10.221c-0.476,2.875-0.198,5.844,0.534,8.666
				s1.909,5.51,3.237,8.105c5.667,11.075,14.17,20.622,24.241,27.925c4.571,3.314,9.467,6.181,14.604,8.526
				c2.782,1.27,5.713,2.404,8.771,2.457c1.529,0.026,3.074-0.226,4.475-0.84c1.4-0.615,2.65-1.604,3.482-2.888
				c1.022-1.578,1.369-3.538,1.164-5.407s-0.935-3.653-1.913-5.259c-2.39-3.923-6.165-6.761-9.796-9.573
				c-7.841-6.074-15.425-12.48-22.683-19.24c-2.049-1.908-4.099-3.878-5.53-6.284c-1.395-2.344-2.147-5.014-2.658-7.692
				c-1.398-7.35-1.041-15.083,1.46-22.134c0.979-2.758,2.271-5.392,3.519-8.04c2.161-4.588,4.207-9.266,7.049-13.467
				c3.538-5.23,8.268-9.66,11.152-15.278c2.434-4.742,3.42-10.072,4.361-15.318C-45.59,184.539-44.861,180.433-44.142,176.326z"/>
		</g>
		
			<path id="path4635-1_1_" sodipodi:nodetypes="ssssssssssssssss" inkscape:connector-curvature="0" inkscape:original-d="m -102.42312,280.0191 c 6.32494,-1.3585 11.99755,4.87308 16.86679,9.13228 6.42572,5.62067 -8.54781,26.01622 13.24488,19.8293 5.86081,-1.66388 6.89528,11.31183 10.16415,16.45304 4.09971,6.44793 11.58575,13.6827 13.65231,21.03883 1.58383,5.63779 1.34339,10.90606 -1.62666,15.95302 -3.57124,6.06857 -11.7907,10.42929 -18.78877,11.20919 -5.73056,0.63864 -11.87822,-3.8351 -17.38362,-5.54906 -12.31617,-3.83432 -23.77946,-5.82074 -36.09666,-9.65174 -2.50091,-0.77785 -8.28361,-2.638 -10.96988,-3.42629 -4.51043,-1.3236 -6.46556,-0.99271 -8.72046,-4.76819 -2.68251,-4.49147 0.68051,-9.72669 3.16379,-14.79408 4.06995,-8.30524 1.91195,-17.82603 0.46203,-25.51057 -0.92235,-4.8884 -0.66071,-7.92707 2.7425,-10.79139 4.99476,-4.20385 14.53027,-1.53186 20.35272,-4.08305 C -109.53754,292.5092 -108.69635,281.36649 -102.42312,280.0191 Z" inkscape:path-effect="#path-effect4669-1" fill="#FDC300" d="
			M-85.064,271.92c1.6-0.662,3.398-0.783,5.102-0.469s3.312,1.049,4.743,2.021c2.864,1.946,4.988,4.778,7.022,7.58
			c4.672,6.434,9.169,13.002,13.245,19.83c3.307,5.537,6.344,11.256,10.164,16.453c2.494,3.391,5.307,6.539,7.813,9.922
			c2.506,3.383,4.728,7.056,5.839,11.116c1.444,5.276,0.885,11.093-1.626,15.953c-1.768,3.419-4.477,6.353-7.773,8.339
			c-3.295,1.986-7.17,3.015-11.016,2.87c-6.114-0.229-11.699-3.285-17.384-5.549c-11.581-4.612-24.159-6.06-36.097-9.651
			c-3.668-1.104-7.275-2.411-10.97-3.427c-1.642-0.451-3.31-0.849-4.858-1.552c-1.551-0.703-3-1.749-3.862-3.217
			c-0.667-1.134-0.948-2.47-0.931-3.785c0.019-1.315,0.326-2.615,0.774-3.852c0.896-2.475,2.343-4.714,3.319-7.157
			c1.596-3.989,1.883-8.388,1.668-12.679c-0.216-4.291-0.912-8.545-1.205-12.832c-0.131-1.914-0.181-3.852,0.185-5.735
			c0.366-1.884,1.176-3.725,2.558-5.056c1.274-1.227,2.965-1.955,4.697-2.316c1.73-0.361,3.515-0.377,5.283-0.338
			c1.768,0.04,3.541,0.135,5.303-0.01c1.764-0.146,3.534-0.541,5.07-1.419c1.459-0.835,2.654-2.074,3.643-3.435
			c0.99-1.359,1.789-2.846,2.609-4.313s1.668-2.932,2.742-4.226C-87.934,273.693-86.617,272.564-85.064,271.92z"/>
	</g>
	<g id="g3449_1_" transform="matrix(0.99380101,0,0,0.99380157,-267.3072,11.684146)">
		
			<path id="path8579_1_" sodipodi:nodetypes="aaaaaaaaa" inkscape:connector-curvature="0" inkscape:original-d="m 379.59906,67.483576 c -0.53932,2.202956 -0.30014,4.622887 0.38882,6.785467 0.45427,1.425934 1.23317,2.846145 2.38697,3.823098 1.43096,1.211538 3.37606,2.60307 5.21846,2.183397 1.72312,-0.392505 2.85696,-2.31289 3.45928,-3.9419 0.9241,-2.499426 0.62268,-5.41777 -0.12318,-7.973609 -0.54112,-1.854286 -1.44041,-3.840267 -3.04552,-4.957531 -1.4504,-1.009594 -3.59901,-1.781207 -5.22471,-1.072674 C 380.80528,63.137851 380.07218,65.551116 379.59906,67.483576 Z" inkscape:path-effect="#path-effect9105" fill="#020204" d="
			M397.066,59.334c-0.374,2.26-0.388,4.631,0.389,6.785c0.513,1.423,1.359,2.714,2.387,3.823c0.673,0.727,1.437,1.387,2.331,1.814
			c0.892,0.428,1.927,0.61,2.887,0.369c0.887-0.223,1.663-0.793,2.235-1.506c0.572-0.713,0.953-1.562,1.225-2.435
			c0.803-2.577,0.673-5.395-0.123-7.973c-0.581-1.879-1.542-3.691-3.046-4.957c-0.717-0.605-1.557-1.078-2.47-1.295
			c-0.912-0.217-1.9-0.166-2.753,0.222c-0.949,0.431-1.682,1.251-2.163,2.175C397.484,57.279,397.236,58.307,397.066,59.334z"/>
		<path id="path9096_1_" sodipodi:nodetypes="aaaaaaaaa" inkscape:connector-curvature="0" fill="#FEFEFC" d="M402.922,57.438
			c0.193,0.525,0.839,0.716,1.194,1.139c0.345,0.412,0.707,0.838,0.896,1.347c0.363,0.975-0.357,2.42,0.398,3.108
			c0.238,0.216,0.713,0.221,0.946,0c0.913-0.864,0.709-2.606,0.349-3.833c-0.328-1.114-1.138-2.169-2.134-2.698
			c-0.461-0.245-1.156-0.449-1.55-0.099C402.767,56.627,402.802,57.114,402.922,57.438z"/>
	</g>
	<g id="g3399_1_" transform="matrix(0.99380008,0,0,0.99380312,-267.61929,12.309061)">
		
			<path id="path8561_1_" sodipodi:nodetypes="zzzzzzz" inkscape:connector-curvature="0" inkscape:original-d="m 422.39949,60.460381 c -2.89198,0.285463 -6.35334,5.275447 -7.0249,9.167474 -0.67155,3.892027 10e-4,5.882096 3.26545,8.565352 3.26408,2.68332 7.41136,2.167863 9.04195,0.416907 1.6306,-1.750957 5.9562,-0.976262 3.66468,-6.569309 -2.29152,-5.593111 -3.92633,-8.602585 -6.04111,-11.132072 C 423.19079,58.379308 425.2916,60.174854 422.39949,60.460381 Z" inkscape:path-effect="#path-effect9100" fill="#020204" d="
			M439.867,52.311c-1.052,0.076-2.076,0.435-2.97,0.997c-0.892,0.562-1.654,1.323-2.251,2.192c-1.195,1.738-1.72,3.871-1.804,5.978
			c-0.063,1.582,0.112,3.185,0.637,4.679c0.525,1.494,1.409,2.877,2.63,3.886c1.248,1.034,2.834,1.654,4.451,1.732
			c1.619,0.078,3.26-0.389,4.59-1.315c1.059-0.737,1.914-1.753,2.522-2.891c0.608-1.139,0.975-2.399,1.142-3.679
			c0.297-2.261-0.038-4.621-1.083-6.648c-1.046-2.027-2.818-3.696-4.958-4.484C441.847,52.418,440.853,52.241,439.867,52.311z"/>
		
			<path id="path8581_1_" sodipodi:nodetypes="aaaaaaaaa" inkscape:connector-curvature="0" inkscape:transform-center-y="3.4983908" inkscape:transform-center-x="-3.0339461" fill="#FEFEFC" d="
			M440.763,56.616c0.39,0.502,1.119,0.431,1.637,0.748c0.503,0.308,1.029,0.624,1.41,1.11c0.729,0.929,0.531,2.858,1.554,3.295
			c0.321,0.137,0.807-0.067,0.962-0.416c0.609-1.364-0.241-3.22-1.061-4.432c-0.746-1.099-1.959-1.921-3.169-2.074
			c-0.559-0.071-1.341,0.007-1.615,0.569C440.306,55.779,440.522,56.307,440.763,56.616z"/>
	</g>
	<g id="g1435-2_1_" transform="translate(-273.42856,-0.48401738)">
		<path id="path8569-8_1_" sodipodi:nodetypes="acscasa" inkscape:connector-curvature="0" fill="#FDFDFB" d="M447.013,47.729
			c-0.559,0.027-1.299-0.064-1.589,0.542c1.818,0.392,3.558,1.14,5.109,2.171c3.003,1.995,5.284,4.911,6.884,8.154
			c0.373-0.414,0.067-1.752-0.252-2.542c-1.164-2.88-2.676-5.243-5.785-7.307C449.888,47.756,448.505,47.654,447.013,47.729z"/>
		<path id="path8573-9_1_" sodipodi:nodetypes="cccsscssscc" inkscape:connector-curvature="0" fill="#FDFDFB" d="M405.655,50.015
			c-0.185-0.006-0.363,0.012-0.547,0.021c-0.119,0.006-0.24,0.01-0.357,0.021c1.076,0.094,2.145,0.372,3.115,0.792
			c1.322,0.571,2.586,1.385,3.717,2.312c2.092,1.716,3.648,3.835,4.701,6.082c-0.26-1.731-0.743-3.406-1.724-4.874
			c-0.319-0.479-0.824-0.849-1.306-1.208c-1.188-0.887-2.544-1.74-3.867-2.312C408.23,50.348,406.942,50.037,405.655,50.015
			L405.655,50.015z"/>
	</g>
	<path fill="#9A1915" stroke="#000000" stroke-width="6" stroke-miterlimit="10" d="M150.936,71.533L44.312,125.024l45.096,23.733
		c0,0,15.221-27.25,70.914-59.6"/>
	
		<ellipse transform="matrix(0.7641 0.6451 -0.6451 0.7641 105.4362 -10.8939)" fill="#FFFFFF" stroke="#FFFFFF" stroke-width="6" stroke-miterlimit="10" cx="67.612" cy="138.706" rx="33.002" ry="18.656"/>
	
		<ellipse transform="matrix(0.7641 0.6452 -0.6452 0.7641 105.5575 -9.5178)" fill="#9A1915" stroke="#000000" stroke-width="6" stroke-miterlimit="10" cx="65.791" cy="139.555" rx="33.001" ry="18.656"/>
	<g>
		<path d="M53.373,367.902c-0.117,0.525-0.293,1.285-0.525,2.278l-2.016-0.264l-3.418,2.805l2.541-0.088l1.928-1.139h0.701
			c-0.117,0.644-0.293,1.636-0.525,2.979l-2.016,0.701l0.965,1.227l-0.436,1.753c-8.188,2.922-17.245,7.448-27.173,13.582
			c-0.233-0.644-0.493-1.694-0.783-3.154c0.181-0.76,0.386-1.547,0.613-2.366l-1.228-0.613l0.088-1.402l0.613-0.087l1.14-0.613
			h0.438l0.613-0.789l-1.665-0.175l-1.052,0.876c0.058-0.701,0.204-1.693,0.438-2.979c-2.278-18.868-3.417-35.051-3.417-48.545
			c1.168-0.408,2.891-1.021,5.17-1.841l-0.613,1.314l1.488,4.119l0.701-2.454l-0.35-2.19l0.263-0.701l-0.351-0.525l1.84-0.613
			c0.292,0.76,0.701,1.607,1.227,2.541c0.467-0.467,1.314-1.402,2.541-2.805c1.168-0.291,2.542-0.7,4.119-1.227
			c-0.117,1.17-0.176,2.337-0.176,3.505c0.643-0.175,1.52-0.379,2.629-0.613c-1.928,15.423-2.892,29.59-2.892,42.499
			c3.056-1.284,7.644-3.154,13.758-5.607v2.103C49.605,369.1,51.211,368.604,53.373,367.902z M28.662,337.759l-0.263-1.578
			l0.175-0.525l-0.613-0.964l-0.963,1.753l1.139,3.066L28.662,337.759z M47.326,374.649l-1.664-0.263l-2.104,1.752l1.578-0.087
			l1.139-0.614h0.438L47.326,374.649z"/>
		<path d="M65.992,330.573c-1.695,16.299-2.542,30.815-2.542,43.551c0,0.643-0.103,1.606-0.307,2.892
			c-0.205,1.285-0.307,2.249-0.307,2.892c0,0.994,0.088,2.249,0.263,3.768c0.176,2.046,0.292,3.301,0.351,3.768
			c-0.525,0.233-1.314,0.584-2.366,1.052c-0.584-0.644-1.401-1.635-2.453-2.979l-0.263,0.438l-0.175-1.227l0.175-0.526l-0.526-1.051
			l-0.963,1.84l0.7,2.278c-0.468,0.583-1.052,1.489-1.753,2.717l-1.139-1.052c-0.469,0.326-1.022,0.735-1.664,1.227
			c-2.629-23.624-3.943-42.962-3.943-58.012c1.635-0.699,2.891-1.224,3.768-1.574h0.176l1.401,4.469l0.788-2.629l-0.262-2.366
			l0.087-0.351l1.489-0.613c0.176,0.526,0.555,1.433,1.14,2.717c0.526-0.643,1.314-1.606,2.366-2.892
			c1.577-0.583,2.804-1.052,3.68-1.402c0,1.637-0.029,2.863-0.088,3.681C64.618,330.954,65.406,330.748,65.992,330.573z
			 M55.651,341.789l-0.351-0.613l-0.525,1.052l0.613,1.84c0.232-0.525,0.291-1.196,0.176-2.016L55.651,341.789z M57.667,339.16
			l-0.175-1.577l0.175-0.438l-0.613-1.052l-0.876,1.84l0.876,3.067L57.667,339.16z"/>
	</g>
	<g>
		<path d="M300.084,325.403c-4.499,5.491-9.025,10.953-13.582,16.386c-5.316,6.484-9.639,12.093-12.969,16.824
			c0.992,1.695,2.365,4.294,4.118,7.799c0.116,0.469,0.351,1.14,0.701,2.016c0.292,0.525,2.073,3.447,5.345,8.763
			c-0.345,0.409-0.834,1.11-1.465,2.104c-1.322-0.584-2.586-1.197-3.793-1.841c0,0.644,0,1.637,0,2.979c0,1.286,0,2.25,0,2.892
			l-1.576-0.438c-0.234,0.468-0.498,1.169-0.789,2.103c-2.453-3.271-6.047-8.237-10.778-14.896
			c-2.278,3.229-6.396,9.305-12.355,18.227c-0.469,0-1.228,0-2.279,0c-0.994,0-1.724,0-2.19,0c0.526-0.76,0.935-1.402,1.228-1.928
			l-1.929,0.351l1.314-0.964l1.314-2.629l0.876-0.526l0.176-2.103l-3.33,1.665l-1.49,4.731c-0.642,0.118-1.605,0.234-2.891,0.351
			c0.468-0.817,1.125-2.029,1.971-3.637c0.848-1.605,1.506-2.817,1.973-3.637c-1.053,1.052-3.242,3.067-6.572,6.047l-0.438-0.351
			l16.737-27.515c-5.492-8.47-9.611-15.217-12.355-20.242c0.059-0.058,0.76-1.109,2.103-3.154l0.088,0.263l3.942,3.154l-0.788-2.804
			l-1.665-1.928l-0.088-0.613l1.14-1.665c0.526,0.468,1.343,1.198,2.454,2.19l0.438-4.118c0.877-0.993,1.723-2.016,2.541-3.067
			c0.467,0.819,1.109,2.046,1.928,3.681c0.408-0.351,1.021-0.905,1.84-1.665c1.285,3.097,3.71,8.354,7.273,15.772
			c2.336-3.68,7.39-10.953,15.16-21.818c0.525,0.117,1.108,0.584,1.752,1.401c0.643,0.819,1.372,1.228,2.191,1.228
			c0.582,0,1.415-0.176,2.496-0.526s1.914-0.525,2.498-0.525c0.467,0,0.846,0.146,1.139,0.438l-1.489,0.789l-1.052,3.242l1.665-1.11
			l0.788-1.537l0.526-0.258v-0.512c0.701,1.285,1.519,1.928,2.454,1.928c0.525,0,1.314-0.233,2.365-0.701
			c1.052-0.467,1.898-0.701,2.541-0.701C299.587,325.315,299.85,325.346,300.084,325.403z M256.709,340.124l-0.613-2.103
			l-1.14-1.314l-0.175-0.613l-1.14-0.613l0.175,2.365L256.709,340.124z M276.425,378.33l-0.964-1.753l-1.402-1.052L273.883,375
			l-1.227-0.176l0.701,2.016L276.425,378.33z M284.049,333.465l-1.928,0.964l-1.053,3.33l1.666-1.228l0.788-1.489l0.438-0.351
			L284.049,333.465z M285.275,328.207l-1.928,0.964l-1.052,3.33l1.665-1.227l0.788-1.49l0.438-0.351L285.275,328.207z"/>
	</g>
	<g>
		<path fill="#9A1917" d="M113.913,331.8c-2.161,13.494-3.242,25.821-3.242,36.979c0,3.798,0.116,7.595,0.351,11.392
			c-0.701,0.468-1.783,1.11-3.242,1.928c-0.176-0.351-0.438-1.08-0.789-2.19l0.264-0.789l-0.264-2.278l0.264-0.701l-0.877-1.401
			l-1.314,2.541l0.613,2.016l-1.227,1.577c0.176,0.818,0.38,1.958,0.613,3.417l-1.401-0.175l-0.088,0.351l-0.438-0.438l-2.016-0.263
			l-0.175-1.841c-8.471-8.002-14.634-14.574-18.489-19.716c0.117,6.076,0.73,13.582,1.84,22.521
			c-1.344,0.994-2.365,1.782-3.066,2.366c-0.409-0.877-0.964-2.191-1.665-3.943c-0.059,0.117-0.644,1.051-1.753,2.804
			c0.233,1.227,0.496,2.395,0.789,3.505c-1.695-0.117-3.01-0.233-3.943-0.351c-3.389-17.992-5.316-35.722-5.783-53.189
			c0.584-0.351,1.459-0.904,2.629-1.665c0-0.057,0.116-1.168,0.351-3.329c1.284-0.233,3.183-0.613,5.696-1.14l-0.877,1.577
			l1.402,4.206l0.789-2.453l-0.264-2.19l0.264-0.701l-0.439-0.613c0.701-0.116,1.753-0.351,3.155-0.701
			c-0.06,1.227-0.088,2.979-0.088,5.258c0.468-0.233,1.196-0.555,2.19-0.964v0.351c0.233-0.643,0.613-1.578,1.14-2.805
			c5.257,13.378,9.931,23.046,14.021,29.005c0-1.402-0.044-3.49-0.132-6.266c-0.087-2.773-0.132-4.863-0.132-6.266
			c0-3.796,0.146-8.382,0.438-13.757c1.109-0.526,2.016-1.021,2.717-1.49c0.175-0.7,0.379-1.722,0.613-3.066
			c0.934-0.058,4.206-0.467,9.813-1.227c-0.233,1.986-0.38,3.593-0.438,4.819C112.424,332.385,113.153,332.15,113.913,331.8z
			 M76.409,339.861l-0.175-1.577l0.175-0.438l-0.526-0.964l-0.963,1.665l0.963,3.067L76.409,339.861z M103.223,374.387l-0.263-1.577
			l0.263-0.438l-0.613-0.964l-0.964,1.752l0.964,2.979L103.223,374.387z"/>
		<path fill="#9A1917" d="M166.051,348.536c0,9.464-3.65,18.607-10.953,27.428c-7.653,9.23-16.094,13.845-25.324,13.845
			c-3.563,0-6.893-0.848-9.988-2.541l-0.789-2.541l-4.119-2.016l0.877,1.577c-4.322-4.206-6.484-10.018-6.484-17.438
			c0-9.814,3.592-19.044,10.777-27.69c7.537-9.054,16.124-13.582,25.763-13.582c4.206,0,7.887,1.11,11.041,3.33l1.841,3.855
			l-1.14-0.088l-0.701-2.19l-4.03-2.103l1.227,2.365l1.752,1.402l0.264,0.438l-1.14-0.088v3.593l-0.613,0.351l-0.438-1.314
			l-4.118-2.016l1.227,2.278l1.841,1.402l0.087,0.263l-2.103,1.052l-2.104,3.242l3.242-2.191l4.119-0.263l0.262,0.525l1.228,0.877
			l0.175,0.438l1.052,0.264l-0.526-1.841l-1.401-0.613l-0.263-1.314l2.104-0.525l-0.877-1.665l4.294,1.665l0.876-0.964
			C165.029,339.599,166.051,343.863,166.051,348.536z M120.485,382.448l-0.876-2.768l-4.119-2.052l1.228,2.409l1.84,1.339
			l0.263,0.714L120.485,382.448z M123.553,378.33l-0.438-1.578l-2.366-1.139l0.701,1.314l1.052,0.788l0.175,0.438L123.553,378.33z
			 M124.429,384.464l-0.438-1.577l-2.365-1.14l0.701,1.314l1.051,0.789l0.176,0.35L124.429,384.464z M152.382,355.078
			c0-3.379-0.967-6.249-2.899-8.609c-1.934-2.36-4.57-3.54-7.91-3.54c-5.214,0-9.844,2.505-13.885,7.517
			c-3.867,4.721-5.8,9.731-5.8,15.033c0,3.381,0.937,6.207,2.812,8.479c1.991,2.448,4.688,3.671,8.086,3.671
			c5.213,0,9.842-2.506,13.885-7.517C150.477,365.393,152.382,360.381,152.382,355.078z M149.49,337.495l-0.525-1.752l-2.717-1.314
			l0.789,1.489l1.227,0.964l0.175,0.438L149.49,337.495z M156.149,343.893l-0.438-1.314l-1.928-0.964l0.613,1.139l0.877,0.613
			l0.088,0.351L156.149,343.893z"/>
		<path fill="#9A1917" d="M214.771,348.536c0,9.464-3.65,18.607-10.953,27.428c-7.654,9.23-16.095,13.845-25.324,13.845
			c-3.564,0-6.894-0.848-9.989-2.541l-0.788-2.541l-4.119-2.016l0.876,1.577c-4.322-4.206-6.484-10.018-6.484-17.438
			c0-9.814,3.593-19.044,10.778-27.69c7.536-9.054,16.123-13.582,25.762-13.582c4.207,0,7.887,1.11,11.041,3.33l1.841,3.855
			l-1.14-0.088l-0.701-2.19l-4.03-2.103l1.227,2.365l1.753,1.402l0.263,0.438l-1.14-0.088v3.593l-0.613,0.351l-0.438-1.314
			l-4.119-2.016l1.227,2.278l1.841,1.402l0.087,0.263l-2.103,1.052l-2.103,3.242l3.242-2.191l4.118-0.263l0.263,0.525l1.227,0.877
			l0.176,0.438l1.051,0.264l-0.525-1.841l-1.402-0.613l-0.262-1.314l2.103-0.525l-0.876-1.665l4.293,1.665l0.877-0.964
			C213.75,339.599,214.771,343.863,214.771,348.536z M169.205,382.448l-0.875-2.768l-4.119-2.052l1.227,2.409l1.84,1.339
			l0.264,0.714L169.205,382.448z M172.272,378.33l-0.438-1.578l-2.365-1.139l0.701,1.314l1.051,0.788l0.176,0.438L172.272,378.33z
			 M173.148,384.464l-0.438-1.577l-2.366-1.14l0.701,1.314l1.052,0.789l0.175,0.35L173.148,384.464z M201.102,355.078
			c0-3.379-0.967-6.249-2.899-8.609c-1.934-2.36-4.57-3.54-7.909-3.54c-5.215,0-9.844,2.505-13.885,7.517
			c-3.867,4.721-5.801,9.731-5.801,15.033c0,3.381,0.938,6.207,2.812,8.479c1.99,2.448,4.688,3.671,8.085,3.671
			c5.214,0,9.842-2.506,13.885-7.517C199.197,365.393,201.102,360.381,201.102,355.078z M198.21,337.495l-0.525-1.752l-2.717-1.314
			l0.789,1.489l1.227,0.964l0.175,0.438L198.21,337.495z M204.869,343.893l-0.438-1.314l-1.928-0.964l0.613,1.139l0.877,0.613
			l0.087,0.351L204.869,343.893z"/>
		<path fill="#9A1917" d="M243.426,331.274v0.613c0,0.468-0.031,0.994-0.088,1.577l-1.49,0.438c0.352,0.584,0.789,1.139,1.314,1.664
			c-0.059,0.118-0.322,0.907-0.789,2.366c-2.57,0.469-5.463,1.14-8.674,2.016c-1.111,9.406-1.666,20.359-1.666,32.86
			c0,0.7-0.102,1.694-0.307,2.979c-0.205,1.286-0.307,2.25-0.307,2.892l0.613,6.923c-0.994,0.585-1.781,0.994-2.365,1.227
			c-0.469-0.351-0.965-0.876-1.49-1.577l-0.088-0.964l0.264-0.701l-0.877-1.401l-1.4,2.541l0.35,0.876
			c-0.469,0.701-1.139,1.753-2.016,3.154l-1.139-0.788c-0.469,0.291-1.023,0.729-1.666,1.314
			c-2.221-18.928-3.447-33.355-3.68-43.288c-4.09,1.987-8.119,4.031-12.092,6.134c0.468-1.693,0.701-3.183,0.701-4.469l0.788-0.876
			l1.489-0.088l2.016-1.139h0.789l0.963-1.314l-2.891-0.351l-1.841,1.577c-0.583-0.351-1.167-0.671-1.753-0.964
			c0.293-0.583,0.395-1.533,0.307-2.848c-0.087-1.314,0.016-2.264,0.307-2.849c-0.232-0.525-0.582-1.284-1.051-2.278
			c1.928-0.934,7.77-3.475,17.525-7.623c7.068-2.979,13.057-5.199,17.963-6.66l0.613,1.402h0.439c0.115,0,0.248,0.162,0.395,0.482
			c0.145,0.321,0.422,0.424,0.832,0.307C243.426,325.959,243.426,328.237,243.426,331.274z M213.895,339.423l-2.016-0.263
			l-2.541,2.104l1.928-0.176l1.402-0.788l0.525,0.088L213.895,339.423z M218.102,341.352l-1.227-0.176l-1.578,1.314l1.227-0.088
			l0.789-0.525h0.35L218.102,341.352z M224.674,380.783l-0.176-1.665l0.176-0.525l-0.613-1.052l-1.053,1.928l1.053,3.242
			L224.674,380.783z M226.076,374.912l-0.176-1.314l0.176-0.438l-0.527-0.788l-0.787,1.489l0.787,2.454L226.076,374.912z"/>
	</g>
</g>
</svg>
